<svg width="258" height="42" viewBox="0 0 258 42" fill="none" xmlns="http://www.w3.org/2000/svg">
<path d="M15.8636 3.09091H27.6591L32.5 22.8636H32.9091L44.2955 3.09091H56.0909L50.2955 38H41.0227L44.3636 17.8182H44.0909L33.0455 37.7273H27.4545L23.0227 17.6818H22.75L19.3409 38H10.0682L15.8636 3.09091ZM59.1506 3.09091H69.7188L74.1506 17.2727H74.4915L83.6278 3.09091H94.196L77.4233 27.0227L75.5824 38H66.1733L68.0142 27.0227L59.1506 3.09091ZM91.4901 38L97.2855 3.09091H106.763L104.513 16.7273H117.058L119.308 3.09091H128.786L122.99 38H113.513L115.763 24.3636H103.217L100.967 38H91.4901ZM164.104 21.1591C163.467 24.9545 162.206 28.1364 160.32 30.7045C158.433 33.2727 156.143 35.2102 153.45 36.517C150.757 37.8239 147.876 38.4773 144.808 38.4773C141.536 38.4773 138.695 37.767 136.286 36.3466C133.876 34.9261 132.121 32.8466 131.018 30.108C129.916 27.3693 129.695 24.0227 130.354 20.0682C130.967 16.2727 132.217 13.0795 134.104 10.4886C135.99 7.89773 138.291 5.9375 141.007 4.60795C143.723 3.27841 146.626 2.61364 149.717 2.61364C152.967 2.61364 155.791 3.32954 158.189 4.76136C160.598 6.19318 162.348 8.28977 163.439 11.0511C164.541 13.8125 164.763 17.1818 164.104 21.1591ZM154.558 20.0682C154.876 18.0682 154.899 16.3864 154.626 15.0227C154.354 13.6477 153.78 12.6136 152.905 11.9205C152.03 11.2159 150.854 10.8636 149.376 10.8636C147.695 10.8636 146.206 11.2727 144.911 12.0909C143.615 12.9091 142.541 14.0852 141.689 15.6193C140.837 17.1534 140.24 19 139.899 21.1591C139.536 23.1818 139.501 24.8636 139.797 26.2045C140.104 27.5455 140.706 28.5511 141.604 29.2216C142.513 29.892 143.695 30.2273 145.149 30.2273C146.808 30.2273 148.274 29.8295 149.547 29.0341C150.831 28.2386 151.893 27.0852 152.734 25.5739C153.587 24.0625 154.195 22.2273 154.558 20.0682ZM171.489 3.09091H183.284L188.125 22.8636H188.534L199.92 3.09091H211.716L205.92 38H196.648L199.989 17.8182H199.716L188.67 37.7273H183.08L178.648 17.6818H178.375L174.966 38H165.693L171.489 3.09091ZM214.776 3.09091H225.344L229.776 17.2727H230.116L239.253 3.09091H249.821L233.048 27.0227L231.207 38H221.798L223.639 27.0227L214.776 3.09091Z" fill="#203D89"/>
</svg>
