<svg width="28" height="28" viewBox="0 0 28 28" fill="none" xmlns="http://www.w3.org/2000/svg">
<path d="M25.375 11.1562C25.375 18.375 14 24.5 14 24.5C14 24.5 2.625 18.375 2.625 11.1562C2.625 9.58982 3.24726 8.08754 4.3549 6.9799C5.46254 5.87226 6.96482 5.25 8.53125 5.25C11.002 5.25 13.1184 6.59641 14 8.75C14.8816 6.59641 16.998 5.25 19.4688 5.25C21.0352 5.25 22.5375 5.87226 23.6451 6.9799C24.7527 8.08754 25.375 9.58982 25.375 11.1562Z" fill="#FD0707"/>
<path d="M19.4688 4.375C17.2102 4.375 15.2327 5.34625 14 6.98797C12.7673 5.34625 10.7898 4.375 8.53125 4.375C6.73337 4.37703 5.00971 5.09213 3.73842 6.36342C2.46713 7.63471 1.75203 9.35837 1.75 11.1562C1.75 18.8125 13.102 25.0097 13.5855 25.2656C13.7129 25.3342 13.8553 25.37 14 25.37C14.1447 25.37 14.2871 25.3342 14.4145 25.2656C14.898 25.0097 26.25 18.8125 26.25 11.1562C26.248 9.35837 25.5329 7.63471 24.2616 6.36342C22.9903 5.09213 21.2666 4.37703 19.4688 4.375ZM14 23.4937C12.0028 22.33 3.5 17.0286 3.5 11.1562C3.50174 9.82241 4.03237 8.5437 4.97554 7.60054C5.9187 6.65737 7.19741 6.12674 8.53125 6.125C10.6586 6.125 12.4447 7.25813 13.1906 9.07812C13.2565 9.23861 13.3687 9.37587 13.5128 9.47248C13.6569 9.56908 13.8265 9.62065 14 9.62065C14.1735 9.62065 14.3431 9.56908 14.4872 9.47248C14.6313 9.37587 14.7435 9.23861 14.8094 9.07812C15.5553 7.25484 17.3414 6.125 19.4688 6.125C20.8026 6.12674 22.0813 6.65737 23.0245 7.60054C23.9676 8.5437 24.4983 9.82241 24.5 11.1562C24.5 17.0198 15.995 22.3289 14 23.4937Z" fill="white"/>
</svg>
