<svg width="28" height="28" viewBox="0 0 28 28" fill="none" xmlns="http://www.w3.org/2000/svg">
<path d="M25.6667 0H2.33333C1.71449 0 1.121 0.245833 0.683417 0.683417C0.245833 1.121 0 1.71449 0 2.33333V25.6667C0 26.2855 0.245833 26.879 0.683417 27.3166C1.121 27.7542 1.71449 28 2.33333 28H25.6667C26.2855 28 26.879 27.7542 27.3166 27.3166C27.7542 26.879 28 26.2855 28 25.6667V2.33333C28 1.71449 27.7542 1.121 27.3166 0.683417C26.879 0.245833 26.2855 0 25.6667 0ZM7 25.6667H2.33333V2.33333H7V25.6667ZM21 17.5H11.6667C11.3572 17.5 11.0605 17.3771 10.8417 17.1583C10.6229 16.9395 10.5 16.6428 10.5 16.3333C10.5 16.0239 10.6229 15.7272 10.8417 15.5084C11.0605 15.2896 11.3572 15.1667 11.6667 15.1667H21C21.3094 15.1667 21.6062 15.2896 21.825 15.5084C22.0438 15.7272 22.1667 16.0239 22.1667 16.3333C22.1667 16.6428 22.0438 16.9395 21.825 17.1583C21.6062 17.3771 21.3094 17.5 21 17.5ZM21 12.8333H11.6667C11.3572 12.8333 11.0605 12.7104 10.8417 12.4916C10.6229 12.2728 10.5 11.9761 10.5 11.6667C10.5 11.3572 10.6229 11.0605 10.8417 10.8417C11.0605 10.6229 11.3572 10.5 11.6667 10.5H21C21.3094 10.5 21.6062 10.6229 21.825 10.8417C22.0438 11.0605 22.1667 11.3572 22.1667 11.6667C22.1667 11.9761 22.0438 12.2728 21.825 12.4916C21.6062 12.7104 21.3094 12.8333 21 12.8333Z" fill="#0078EF"/>
</svg>
