<svg width="28" height="28" viewBox="0 0 28 28" fill="none" xmlns="http://www.w3.org/2000/svg">
<path d="M14.0098 6.27596C14.0589 5.59691 14.2831 4.94218 14.6607 4.37568C15.0383 3.80917 15.5563 3.35025 16.1642 3.04371C16.7721 2.73718 17.4491 2.59349 18.1291 2.62669C18.8091 2.6599 19.4689 2.86884 20.0441 3.23315C20.1098 3.27617 20.1628 3.33611 20.1974 3.40667C20.232 3.47723 20.2469 3.5558 20.2406 3.63413C20.2344 3.71246 20.2071 3.78766 20.1618 3.85183C20.1164 3.91599 20.0546 3.96675 19.9828 3.99877C18.983 4.4486 18.1343 5.1775 17.5387 6.09793C16.943 7.01836 16.6258 8.09117 16.625 9.18752C16.625 9.31549 16.625 9.44346 16.6381 9.56924C16.6442 9.64874 16.6283 9.72838 16.5924 9.79955C16.5565 9.87072 16.5018 9.93071 16.4342 9.97305C16.3666 10.0154 16.2888 10.0385 16.2091 10.0398C16.1294 10.0411 16.0508 10.0206 15.9819 9.98049C15.3373 9.61179 14.8101 9.06834 14.4612 8.41285C14.1122 7.75736 13.9558 7.01656 14.0098 6.27596ZM26.25 17.5667C26.2516 18.0667 26.1131 18.5572 25.8501 18.9825C25.5872 19.4077 25.2105 19.7509 24.7625 19.973L24.7144 19.9949L20.4673 21.8039C20.4254 21.8224 20.3818 21.8371 20.3372 21.8477L13.3372 23.5977C13.2679 23.6155 13.1966 23.6247 13.125 23.625H1.75C1.28587 23.625 0.840752 23.4406 0.512563 23.1125C0.184374 22.7843 0 22.3391 0 21.875V17.5C0 17.0359 0.184374 16.5908 0.512563 16.2626C0.840752 15.9344 1.28587 15.75 1.75 15.75H4.88797L7.36203 13.2749C7.68644 12.949 8.07221 12.6907 8.49705 12.5147C8.92189 12.3388 9.37737 12.2489 9.83719 12.25H15.3125C15.7747 12.25 16.2309 12.3545 16.6469 12.5559C17.063 12.7572 17.428 13.0501 17.7148 13.4126C18.0015 13.7751 18.2024 14.1978 18.3026 14.649C18.4027 15.1002 18.3994 15.5682 18.293 16.018L22.8692 14.9658C23.2676 14.8603 23.6849 14.8477 24.0889 14.9289C24.493 15.0102 24.8729 15.1831 25.1996 15.4344C25.5262 15.6857 25.7908 16.0086 25.9729 16.3783C26.155 16.748 26.2498 17.1546 26.25 17.5667ZM24.5 17.5667C24.4999 17.4221 24.4664 17.2794 24.4022 17.1497C24.338 17.0201 24.2448 16.907 24.1298 16.8192C24.0148 16.7314 23.8811 16.6712 23.7392 16.6434C23.5972 16.6157 23.4507 16.621 23.3111 16.6589L23.2772 16.6677L15.9491 18.3531C15.8848 18.3675 15.8191 18.3748 15.7533 18.375H12.25C12.0179 18.375 11.7954 18.2828 11.6313 18.1187C11.4672 17.9546 11.375 17.7321 11.375 17.5C11.375 17.268 11.4672 17.0454 11.6313 16.8813C11.7954 16.7172 12.0179 16.625 12.25 16.625H15.3125C15.6606 16.625 15.9944 16.4867 16.2406 16.2406C16.4867 15.9945 16.625 15.6606 16.625 15.3125C16.625 14.9644 16.4867 14.6306 16.2406 14.3844C15.9944 14.1383 15.6606 14 15.3125 14H9.83719C9.60729 13.9993 9.37954 14.0443 9.16718 14.1323C8.95481 14.2204 8.76207 14.3498 8.60016 14.513L6.125 16.9871V21.875H13.0156L19.8439 20.1677L24.0002 18.398C24.1514 18.3183 24.278 18.1987 24.3661 18.0521C24.4542 17.9056 24.5005 17.7377 24.5 17.5667ZM18.375 9.18752C18.375 9.96628 18.6059 10.7276 19.0386 11.3751C19.4712 12.0226 20.0862 12.5273 20.8057 12.8253C21.5252 13.1233 22.3169 13.2013 23.0807 13.0494C23.8445 12.8974 24.5461 12.5224 25.0967 11.9718C25.6474 11.4211 26.0224 10.7195 26.1743 9.95569C26.3263 9.19189 26.2483 8.40019 25.9503 7.6807C25.6523 6.96122 25.1476 6.34627 24.5001 5.91361C23.8525 5.48095 23.0913 5.25002 22.3125 5.25002C21.2682 5.25002 20.2667 5.66486 19.5283 6.40329C18.7898 7.14171 18.375 8.14323 18.375 9.18752Z" fill="#0078EF"/>
</svg>
