<svg width="24" height="24" viewBox="0 0 24 24" fill="none" xmlns="http://www.w3.org/2000/svg">
<path d="M22.0688 20.5921L17.2596 15.7838C18.6535 14.1104 19.3485 11.9639 19.2002 9.79103C19.0518 7.61814 18.0715 5.58609 16.4631 4.1176C14.8547 2.64911 12.742 1.85724 10.5646 1.90673C8.38723 1.95621 6.31274 2.84324 4.7727 4.38328C3.23266 5.92332 2.34563 7.99781 2.29615 10.1752C2.24666 12.3526 3.03853 14.4652 4.50702 16.0736C5.97551 17.6821 8.00756 18.6624 10.1804 18.8108C12.3533 18.9591 14.4998 18.264 16.1732 16.8701L20.9815 21.6794C21.0529 21.7507 21.1376 21.8074 21.2309 21.846C21.3242 21.8847 21.4242 21.9045 21.5251 21.9045C21.6261 21.9045 21.7261 21.8847 21.8194 21.846C21.9126 21.8074 21.9974 21.7507 22.0688 21.6794C22.1402 21.608 22.1968 21.5232 22.2354 21.4299C22.2741 21.3367 22.294 21.2367 22.294 21.1357C22.294 21.0348 22.2741 20.9348 22.2354 20.8415C22.1968 20.7482 22.1402 20.6635 22.0688 20.5921ZM3.85199 10.3781C3.85199 9.01037 4.25758 7.67332 5.01747 6.53606C5.77737 5.39879 6.85743 4.51241 8.12109 3.98898C9.38475 3.46556 10.7752 3.32861 12.1167 3.59545C13.4582 3.86229 14.6905 4.52093 15.6576 5.48809C16.6248 6.45525 17.2834 7.68749 17.5503 9.02898C17.8171 10.3705 17.6802 11.761 17.1567 13.0246C16.6333 14.2883 15.7469 15.3683 14.6097 16.1282C13.4724 16.8881 12.1353 17.2937 10.7676 17.2937C8.93406 17.2917 7.17624 16.5624 5.87976 15.266C4.58328 13.9695 3.85402 12.2116 3.85199 10.3781Z" fill="black"/>
</svg>
